HIERARCHY
ROOT Pelvis
{
	OFFSET 0.000000 0.000000 0.000000
	CHANNELS 6 Xposition Yposition Zposition Zrotation Yrotation Xrotation
	JOINT L_Hip
	{
		OFFSET 1.175911 0.000000 0.000000
		CHANNELS 3 Zrotation Yrotation Xrotation
		JOINT L_Knee
		{
			OFFSET 0.000000 -0.369102 0.000000
			CHANNELS 3 Zrotation Yrotation Xrotation
			JOINT L_Ankle
			{
				OFFSET 0.000000 -0.430693 0.000000
				CHANNELS 3 Zrotation Yrotation Xrotation
				JOINT L_Foot
				{
					OFFSET 0.000000 0.000000 0.141747
					CHANNELS 3 Zrotation Yrotation Xrotation
					End Site
					{
						OFFSET 0.000000 0.000000 0.000000
					}
				}
			}
		}
	}
	JOINT R_Hip
	{
		OFFSET -1.186012 0.000000 0.000000
		CHANNELS 3 Zrotation Yrotation Xrotation
		JOINT R_Knee
		{
			OFFSET 0.000000 -0.361480 0.000000
			CHANNELS 3 Zrotation Yrotation Xrotation
			JOINT R_Ankle
			{
				OFFSET 0.000000 -0.433973 0.000000
				CHANNELS 3 Zrotation Yrotation Xrotation
				JOINT R_Foot
				{
					OFFSET 0.000000 0.000000 0.151230
					CHANNELS 3 Zrotation Yrotation Xrotation
					End Site
					{
						OFFSET 0.000000 0.000000 0.000000
					}
				}
			}
		}
	}
	JOINT Spine1
	{
		OFFSET 0.000000 0.979888 0.000000
		CHANNELS 3 Zrotation Yrotation Xrotation
		JOINT Spine2
		{
			OFFSET 0.000000 0.160435 0.000000
			CHANNELS 3 Zrotation Yrotation Xrotation
			JOINT Spine3
			{
				OFFSET 0.000000 0.068423 0.000000
				CHANNELS 3 Zrotation Yrotation Xrotation
				JOINT Neck
				{
					OFFSET 0.000000 0.224419 0.000000
					CHANNELS 3 Zrotation Yrotation Xrotation
					JOINT Head
					{
						OFFSET 0.000000 0.000000 0.075901
						CHANNELS 3 Zrotation Yrotation Xrotation
						End Site
						{
							OFFSET 0.000000 0.000000 0.000000
						}
					}
				}
				JOINT L_Collar
				{
					OFFSET 0.152660 0.000000 0.000000
					CHANNELS 3 Zrotation Yrotation Xrotation
					JOINT L_Shoulder
					{
						OFFSET 0.000000 -0.132610 0.000000
						CHANNELS 3 Zrotation Yrotation Xrotation
						JOINT L_Elbow
						{
							OFFSET 0.000000 -0.278452 0.000000
							CHANNELS 3 Zrotation Yrotation Xrotation
							JOINT L_Wrist
							{
								OFFSET 0.000000 -0.257999 0.000000
								CHANNELS 3 Zrotation Yrotation Xrotation
								End Site
								{
									OFFSET 0.000000 0.000000 0.000000
								}
							}
						}
					}
				}
				JOINT R_Collar
				{
					OFFSET -0.160835 0.000000 0.000000
					CHANNELS 3 Zrotation Yrotation Xrotation
					JOINT R_Shoulder
					{
						OFFSET 0.000000 -0.122842 0.000000
						CHANNELS 3 Zrotation Yrotation Xrotation
						JOINT R_Elbow
						{
							OFFSET 0.000000 -0.289681 0.000000
							CHANNELS 3 Zrotation Yrotation Xrotation
							JOINT R_Wrist
							{
								OFFSET 0.000000 -0.262809 0.000000
								CHANNELS 3 Zrotation Yrotation Xrotation
								End Site
								{
									OFFSET 0.000000 0.000000 0.000000
								}
							}
						}
					}
				}
			}
		}
	}
}
MOTION
Frames: 10
Frame Time: 0.05000000
0.000000 2.038317 0.000000 0.000000 -0.000000 0.000000 -55.258563 3.354995 -0.574188 65.527735 -2.738904 -22.390028 -14.276983 4.489237 57.192480 0.889869 24.253628 13.897175 56.187540 -3.178164 -2.600643 -60.944378 1.512328 -7.006673 10.814050 -2.702140 17.355888 -7.088101 -16.088068 9.233903 -0.451517 -2.445544 -22.574450 -0.718643 0.231825 39.214141 4.490358 0.453892 -10.031696 0.474897 0.091097 -9.246619 -4.221277 1.065985 -59.860304 59.116312 2.707998 -0.157289 24.381035 -12.128130 7.231167 -75.410671 -8.222208 -1.312510 5.340897 5.002875 -33.603749 -53.897658 -5.873884 4.358208 -28.463785 7.738768 0.391016 74.405806 5.173039 2.793281 -5.358361 -4.432205 -33.678423
0.061506 2.069697 1.140065 0.000000 -2.163612 0.000000 -54.554756 2.131791 0.288069 64.542084 -1.212156 -27.291720 -11.535049 4.452032 50.296014 0.352098 23.543981 13.002343 57.524475 -4.480607 -3.638159 -61.618675 3.549632 -3.349838 10.464881 -2.177255 14.708758 -6.607299 -15.812810 8.065495 -0.748008 -2.587015 -22.701264 0.040685 0.064851 40.508281 3.746673 0.329941 -10.477083 0.311890 0.130056 -8.934254 -3.676554 1.662352 -58.794767 59.055168 2.627458 -0.401108 23.159624 -14.313345 9.326067 -76.156678 -9.971931 -2.690976 6.543176 4.962709 -31.988402 -53.526321 -5.689404 3.993578 -29.158060 5.887418 -0.126621 75.319925 3.197021 1.510789 -3.826407 -3.384242 -34.782527
0.203081 1.934755 2.282650 0.000000 -4.502008 0.000000 -53.633944 0.691732 0.240735 63.437370 0.134134 -28.596967 -10.811740 4.159724 35.074995 2.097019 21.539869 15.201744 57.728260 -5.777941 -3.965644 -62.311529 4.604146 0.236593 10.355824 -1.286183 13.270981 -5.825422 -15.942024 6.115817 -0.924713 -1.952727 -22.853685 0.788712 -0.073067 40.781581 3.106807 0.202825 -9.504779 0.143109 -0.189414 -9.410255 -3.866298 2.898931 -57.417596 58.373228 2.470800 -0.258603 23.476982 -14.004244 10.346721 -75.844702 -11.371427 -3.154948 6.840443 4.616551 -31.355838 -53.994261 -4.931613 3.460691 -30.352275 4.225807 -0.879873 75.227587 2.008430 1.127462 -1.382248 -3.447426 -35.398804
0.393685 1.763788 3.432470 0.000000 -6.236437 0.000000 -54.075967 0.234675 0.498840 63.231631 0.150695 -29.190483 -10.982641 4.002406 20.829780 6.528747 21.149174 17.622771 58.321811 -5.828094 -4.546256 -62.690618 5.138225 3.923290 10.351719 -0.625414 12.838931 -5.118782 -15.428754 4.804299 -1.557382 -2.237851 -22.467748 1.676642 -0.639286 41.890858 3.340069 0.134775 -11.487146 -0.302143 -0.134860 -8.950183 -4.763640 4.275087 -60.786184 58.541060 3.106477 -0.037312 21.979597 -16.078494 11.256526 -75.208996 -13.039465 -4.626612 7.273144 4.469435 -30.578620 -54.112901 -5.328011 3.652184 -30.716648 3.418201 -1.460642 73.972069 1.214459 -0.624959 -0.040768 -3.537218 -36.463419
0.650099 1.473618 4.624508 0.000000 -8.093663 0.000000 -54.986540 0.951152 0.013684 62.641693 -0.218992 -29.069210 -10.444552 3.585956 9.912451 8.357344 18.800444 17.576431 58.166642 -6.470229 -4.743182 -62.400485 6.475892 6.427719 10.529121 -0.272056 13.691134 -3.907413 -16.531039 3.021068 -2.588756 -1.961604 -21.138206 2.497897 -0.678387 40.455815 3.166295 0.221632 -10.791730 -0.317536 0.006315 -8.606057 -4.930924 4.684243 -60.473081 58.928106 3.000964 0.230657 21.647984 -16.067624 11.288853 -74.461705 -13.209745 -3.326973 8.470022 4.566904 -29.353237 -54.781006 -4.531157 3.076653 -29.635105 2.706125 -1.858411 72.958243 1.032656 -1.528372 0.392312 -3.735115 -37.374959
0.997806 1.206659 5.875697 0.000000 -10.302056 0.000000 -55.537494 1.097456 0.389167 60.995604 -0.353623 -29.361631 -10.523937 3.564052 8.014977 9.356463 16.693565 16.716241 58.321510 -7.902043 -5.780833 -63.172884 8.396867 7.947051 11.122548 -0.268657 16.132528 -2.683936 -19.522619 2.106289 -3.150757 -2.453240 -20.302061 2.820533 -0.276923 39.952877 3.908021 0.130221 -11.582528 -0.716219 -0.244779 -7.616648 -5.086570 4.283036 -60.837035 58.981641 2.285614 -0.350313 21.163162 -15.191039 11.358894 -75.483931 -13.178678 -2.625651 10.085791 4.876399 -28.092235 -55.191712 -4.822024 3.479515 -29.682493 2.371685 -2.082964 73.363356 0.852195 -2.065005 -0.396978 -3.569042 -36.088701
1.455088 1.069946 7.243580 0.000000 -12.212213 0.000000 -54.594009 1.488272 0.497259 60.159965 -0.535019 -29.864264 -10.481037 3.517143 12.429186 9.319487 15.421816 17.133944 58.817211 -8.585472 -6.135782 -64.753888 8.626960 9.456438 11.199991 0.135711 20.413572 -1.498660 -18.888029 1.930931 -2.946957 -2.469144 -19.971932 2.073466 0.480626 38.609809 4.252032 -0.067479 -11.406837 -0.666725 -0.309697 -7.241227 -5.075932 4.739803 -61.539847 58.495072 2.722011 -0.140307 21.419721 -15.158307 11.459092 -76.369329 -13.143471 -2.794119 10.830850 4.685940 -27.009645 -55.466624 -5.449628 3.782675 -29.694124 3.760963 -1.471833 74.020290 1.579745 -2.810115 -2.391994 -3.660349 -34.877545
2.021055 1.148516 8.686847 0.000000 -14.137575 0.000000 -53.422953 1.767539 -0.335896 58.464705 -1.299426 -30.491955 -8.893278 3.036235 20.148944 8.147421 14.078923 20.260812 59.399724 -7.379102 -5.387873 -65.481392 8.525638 8.963783 11.170479 -0.063428 27.036863 -2.244863 -15.791829 9.337678 -2.011767 -1.613704 -20.159085 0.901110 0.632591 38.034527 4.373461 0.117165 -11.014871 -0.623013 0.182266 -8.315394 -5.493418 6.784216 -61.545141 57.761325 4.232638 1.275158 21.045589 -17.106680 11.969545 -75.853581 -13.753214 -4.486553 10.843944 4.273738 -24.890184 -55.444764 -5.689940 3.439973 -30.104510 4.211020 -2.056309 74.235502 1.710233 -2.172198 -3.725777 -3.568658 -33.869931
2.637716 1.330267 10.084137 0.000000 -16.073856 0.000000 -52.594407 2.538798 -1.180812 56.902289 -2.040355 -29.491251 -7.530418 3.199821 24.394007 7.802002 13.557236 20.115961 60.082770 -6.245777 -4.715587 -67.596169 7.569061 3.164391 11.663426 -1.104944 41.427758 -2.359670 -14.792615 23.915298 -0.795288 -0.865991 -20.781289 -0.592077 0.819538 37.964961 4.367923 0.275845 -11.730792 -0.120635 0.439831 -8.475658 -5.628847 6.743611 -60.998978 57.531756 5.374582 2.330981 21.120890 -17.465325 11.183200 -75.998258 -13.361719 -4.971364 10.652782 4.313967 -24.727559 -55.167506 -6.147758 3.357015 -29.741741 5.068188 -2.364391 74.517145 2.169702 -1.483590 -5.116649 -3.862385 -32.388556
3.216009 1.525656 11.355847 0.000000 -17.883180 0.000000 -52.824191 3.157847 -1.423212 55.634889 -2.653367 -25.321062 -7.834668 3.109890 24.048773 7.421249 15.221690 16.375918 60.127542 -4.894961 -3.931684 -68.604544 5.650945 -3.373996 12.222916 -1.538639 54.140096 -1.358566 -18.221702 30.837310 -0.340385 -0.493296 -21.283694 -1.233051 0.997304 38.498593 4.772267 0.229838 -11.836607 0.182100 0.725923 -8.796961 -5.910053 6.212592 -61.094246 58.248557 5.415938 2.678783 22.063116 -17.455508 10.333812 -76.709779 -12.969168 -5.588452 10.351264 4.126793 -25.330417 -54.354611 -6.334411 3.716115 -29.355979 6.670977 -1.767864 75.799377 3.255317 -0.680166 -6.198469 -3.973008 -31.392417
